PathFileType	4	(X/Y/Z)	 Static_Ext01.trc
DataRate	CameraRate	NumFrames	NumMarkers	Units	OrigDataRate	OrigDataStartFrame	OrigNumFrames
250	250	8	38	m	250	318	423
Frame#	Time	RASI			LASI			RPSI			LPSI			RAIC			LAIC			RLFC			RMFC			RTH1			RTH2			RTH3			RLMAL			RMMAL			RTB1			RTB2			RTB3			RCAL			RMT1			RMT5			LLFC			LMFC			LTH1			LTH2			LTH3			LLMAL			LMMAL			LTB1			LTB2			LTB3			LCAL			LMT1			LMT5			C7			T10			CLAV			STRN			RACR			LACR			
		X1	Y1	Z1	X2	Y2	Z2	X3	Y3	Z3	X4	Y4	Z4	X5	Y5	Z5	X6	Y6	Z6	X7	Y7	Z7	X8	Y8	Z8	X9	Y9	Z9	X10	Y10	Z10	X11	Y11	Z11	X12	Y12	Z12	X13	Y13	Z13	X14	Y14	Z14	X15	Y15	Z15	X16	Y16	Z16	X17	Y17	Z17	X18	Y18	Z18	X19	Y19	Z19	X20	Y20	Z20	X21	Y21	Z21	X22	Y22	Z22	X23	Y23	Z23	X24	Y24	Z24	X25	Y25	Z25	X26	Y26	Z26	X27	Y27	Z27	X28	Y28	Z28	X29	Y29	Z29	X30	Y30	Z30	X31	Y31	Z31	X32	Y32	Z32	X33	Y33	Z33	X34	Y34	Z34	X35	Y35	Z35	X36	Y36	Z36	X37	Y37	Z37	X38	Y38	Z38	
318	1.2720	0.381204	0.985292	0.428864	0.370216	0.982081	0.191294	0.197369	1.047460	0.362552	0.194346	1.051026	0.289818	0.304484	1.078755	0.471560	0.303859	1.078062	0.164655	0.252907	0.502759	0.467060	0.237811	0.495053	0.363451	0.279277	0.869003	0.504946	0.322224	0.774219	0.492955	0.260681	0.692152	0.496512	0.173944	0.095126	0.480522	0.199725	0.103046	0.396813	0.249255	0.369393	0.406568	0.252708	0.307076	0.463432	0.229146	0.234281	0.417523	0.110254	0.040006	0.419978	0.326071	0.046196	0.414684	0.313547	0.041685	0.507863	0.250585	0.516738	0.160302	0.251352	0.501214	0.271079	0.305054	0.862659	0.133193	0.342689	0.767144	0.151171	0.278271	0.685051	0.132478	0.174247	0.100135	0.141358	0.205294	0.102717	0.222572	0.257705	0.368635	0.216334	0.248348	0.301674	0.160159	0.230929	0.234473	0.210036	0.105873	0.042298	0.198928	0.328181	0.044279	0.196448	0.308047	0.045880	0.109841	0.221495	1.521762	0.315206	0.176746	1.226377	0.315789	0.333274	1.445971	0.321554	0.395241	1.238412	0.322349	0.227848	1.504024	0.462782	0.249592	1.515719	0.175406	
319	1.2760	0.381230	0.985263	0.428821	0.370193	0.982087	0.191236	0.197374	1.047470	0.362526	0.194331	1.051027	0.289783	0.304516	1.078741	0.471532	0.304346	1.078089	0.164435	0.252929	0.502752	0.467044	0.237827	0.495042	0.363428	0.279322	0.868991	0.504942	0.322276	0.774196	0.492921	0.260726	0.692139	0.496511	0.173947	0.095126	0.480528	0.199734	0.103021	0.396785	0.249563	0.369581	0.406573	0.252761	0.307042	0.463427	0.229117	0.234285	0.417496	0.110267	0.039997	0.419990	0.325781	0.046215	0.414666	0.313557	0.041672	0.507821	0.250585	0.516732	0.160286	0.251350	0.501223	0.271054	0.305076	0.862656	0.133214	0.342737	0.767110	0.151177	0.278288	0.685044	0.132425	0.174231	0.100160	0.141319	0.205309	0.102675	0.222621	0.257705	0.368627	0.216301	0.248344	0.301658	0.160143	0.230904	0.234465	0.210056	0.105866	0.042292	0.198912	0.328045	0.044115	0.196406	0.308056	0.045896	0.109843	0.221508	1.521754	0.315222	0.176749	1.226369	0.315805	0.333233	1.445919	0.321522	0.395246	1.238404	0.322302	0.227860	1.503996	0.462815	0.249579	1.515706	0.175473	
320	1.2800	0.381255	0.985248	0.428754	0.370186	0.982079	0.191215	0.197392	1.047459	0.362515	0.194337	1.051026	0.289771	0.304547	1.078712	0.471515	0.304348	1.078088	0.164414	0.252949	0.502762	0.467017	0.237850	0.495029	0.363407	0.279351	0.868981	0.504891	0.322307	0.774171	0.492904	0.260756	0.692122	0.496489	0.173948	0.095136	0.480530	0.199738	0.103048	0.396842	0.249600	0.369576	0.406570	0.252763	0.307058	0.463418	0.229133	0.234282	0.417508	0.110248	0.039992	0.419976	0.325799	0.046121	0.414707	0.313553	0.041690	0.507830	0.250569	0.516730	0.160271	0.251332	0.501217	0.271045	0.305010	0.862657	0.133127	0.342708	0.767123	0.151124	0.278257	0.685027	0.132418	0.174226	0.100149	0.141312	0.205313	0.102706	0.222630	0.257698	0.368631	0.216287	0.248334	0.301658	0.160126	0.230925	0.234465	0.210045	0.105868	0.042284	0.198912	0.328191	0.044295	0.196465	0.308061	0.045893	0.109852	0.221496	1.521738	0.315247	0.176762	1.226354	0.315810	0.333248	1.445915	0.321525	0.395240	1.238402	0.322285	0.227887	1.503968	0.462819	0.249560	1.515714	0.175484	
321	1.2840	0.381285	0.985219	0.428720	0.370335	0.982084	0.191017	0.197414	1.047470	0.362501	0.194344	1.051028	0.289762	0.304581	1.078699	0.471503	0.304333	1.078101	0.164387	0.252973	0.502743	0.466979	0.237858	0.495010	0.363378	0.279406	0.868966	0.504889	0.322338	0.774164	0.492873	0.260788	0.692111	0.496464	0.173933	0.095128	0.480497	0.199730	0.103038	0.396794	0.249619	0.369548	0.406534	0.252770	0.307052	0.463388	0.229138	0.234275	0.417470	0.110264	0.040006	0.419988	0.325804	0.046150	0.414641	0.313554	0.041675	0.507823	0.250561	0.516708	0.160245	0.251348	0.501207	0.271017	0.305005	0.862644	0.133088	0.342717	0.767094	0.151002	0.278264	0.685025	0.132408	0.174240	0.100123	0.141361	0.205278	0.102693	0.222569	0.257701	0.368640	0.216260	0.248339	0.301657	0.160125	0.230917	0.234444	0.210037	0.105857	0.042283	0.198907	0.328183	0.044280	0.196448	0.308075	0.045877	0.109863	0.221505	1.521738	0.315291	0.176780	1.226340	0.315811	0.333229	1.445916	0.321524	0.395262	1.238414	0.322256	0.227908	1.503938	0.462842	0.249519	1.515696	0.175498	
322	1.2880	0.381318	0.985214	0.428676	0.370303	0.982081	0.190939	0.197420	1.047467	0.362493	0.194348	1.051025	0.289738	0.304633	1.078680	0.471483	0.303794	1.078077	0.164522	0.252991	0.502734	0.466949	0.237889	0.495012	0.363359	0.279455	0.868934	0.504866	0.322387	0.774140	0.492819	0.260808	0.692092	0.496461	0.173956	0.095128	0.480514	0.199722	0.103053	0.396811	0.249610	0.369545	0.406507	0.252794	0.307032	0.463364	0.229143	0.234274	0.417467	0.110249	0.040001	0.419992	0.325719	0.046115	0.414664	0.313550	0.041694	0.507836	0.250557	0.516719	0.160236	0.251330	0.501211	0.271020	0.304994	0.862645	0.133068	0.342018	0.767111	0.151110	0.278257	0.685043	0.132321	0.174229	0.100150	0.141292	0.205284	0.102756	0.222622	0.257679	0.368630	0.216275	0.248311	0.301659	0.160105	0.230898	0.234475	0.210042	0.105857	0.042281	0.198925	0.328050	0.044123	0.196431	0.308041	0.045891	0.109826	0.221520	1.521738	0.315324	0.176781	1.226335	0.315826	0.333238	1.445897	0.321525	0.395255	1.238399	0.322246	0.227933	1.503909	0.462895	0.249509	1.515707	0.175497	
323	1.2920	0.381349	0.985195	0.428616	0.370317	0.982092	0.190941	0.197443	1.047465	0.362460	0.194341	1.051023	0.289721	0.304680	1.078651	0.471457	0.303757	1.078079	0.164494	0.253024	0.502762	0.466948	0.237892	0.494996	0.363322	0.279522	0.868925	0.504850	0.322426	0.774152	0.492791	0.260855	0.692097	0.496439	0.173960	0.095122	0.480521	0.199731	0.103058	0.396820	0.249643	0.369543	0.406511	0.252814	0.307044	0.463352	0.229179	0.234260	0.417481	0.110251	0.039995	0.419989	0.325806	0.046058	0.414765	0.313546	0.041682	0.507836	0.250557	0.516710	0.160213	0.251325	0.501198	0.271005	0.304964	0.862627	0.133019	0.342566	0.767110	0.151042	0.278234	0.684992	0.132322	0.174235	0.100141	0.141303	0.205313	0.102693	0.222644	0.257676	0.368632	0.216247	0.248322	0.301651	0.160114	0.230909	0.234450	0.210027	0.105849	0.042278	0.198926	0.328180	0.044248	0.196460	0.308054	0.045872	0.109832	0.221533	1.521729	0.315360	0.176787	1.226337	0.315835	0.333220	1.445875	0.321542	0.395255	1.238389	0.322213	0.227962	1.503871	0.462907	0.249478	1.515719	0.175515	
324	1.2960	0.381382	0.985201	0.428572	0.370287	0.982090	0.190882	0.197448	1.047453	0.362445	0.194351	1.051023	0.289715	0.304711	1.078641	0.471449	0.303755	1.078085	0.164449	0.253043	0.502739	0.466928	0.237916	0.494999	0.363323	0.279567	0.868903	0.504839	0.322458	0.774111	0.492749	0.260873	0.692063	0.496417	0.173972	0.095131	0.480514	0.199684	0.103023	0.396752	0.249663	0.369564	0.406492	0.252811	0.307039	0.463328	0.229172	0.234262	0.417458	0.110241	0.040005	0.419959	0.325578	0.045994	0.414718	0.313552	0.041676	0.507830	0.250541	0.516706	0.160182	0.251316	0.501213	0.271008	0.304940	0.862622	0.132974	0.342559	0.767087	0.151034	0.278238	0.684977	0.132320	0.174216	0.100144	0.141306	0.205278	0.102754	0.222584	0.257675	0.368631	0.216237	0.248322	0.301664	0.160125	0.230919	0.234472	0.209997	0.105874	0.042275	0.198923	0.328175	0.044269	0.196440	0.308067	0.045874	0.109869	0.221524	1.521713	0.315388	0.176794	1.226307	0.315843	0.333219	1.445863	0.321510	0.395262	1.238371	0.322196	0.227990	1.503851	0.462933	0.249445	1.515705	0.175549	
325	1.3000	0.381403	0.985183	0.428495	0.370276	0.982078	0.190830	0.197460	1.047469	0.362427	0.194355	1.051032	0.289687	0.304773	1.078614	0.471410	0.303748	1.078086	0.164437	0.253046	0.502723	0.466875	0.237924	0.494980	0.363283	0.279617	0.868906	0.504810	0.322516	0.774097	0.492726	0.260927	0.692044	0.496410	0.173966	0.095133	0.480513	0.199724	0.103031	0.396802	0.249716	0.369563	0.406445	0.252814	0.307049	0.463305	0.229200	0.234248	0.417476	0.110243	0.040006	0.419995	0.325665	0.046126	0.414679	0.313562	0.041693	0.507820	0.250531	0.516695	0.160191	0.251312	0.501199	0.270970	0.304952	0.862606	0.132964	0.342534	0.767089	0.150998	0.278217	0.684958	0.132276	0.174230	0.100113	0.141336	0.205293	0.102713	0.222580	0.257667	0.368619	0.216264	0.248296	0.301655	0.160097	0.230897	0.234448	0.210027	0.105856	0.042265	0.198924	0.328174	0.044271	0.196404	0.308055	0.045891	0.109854	0.221542	1.521696	0.315419	0.176799	1.226320	0.315865	0.333213	1.445841	0.321537	0.395253	1.238385	0.322149	0.228012	1.503816	0.463004	0.249437	1.515692	0.175566	
